<svg width="28" height="16" viewBox="0 0 28 16" fill="none" xmlns="http://www.w3.org/2000/svg">
<path d="M13.6096 15.8845H15.2716C15.2716 15.8845 15.7741 15.8285 16.0296 15.5507C16.2661 15.2956 16.2574 14.8168 16.2574 14.8168C16.2574 14.8168 16.2244 12.5748 17.2605 12.2445C18.281 11.9195 19.5919 14.4114 20.981 15.3707C22.0311 16.0959 22.829 15.9369 22.829 15.9369L26.5443 15.8845C26.5443 15.8845 28.488 15.7639 27.5665 14.2279C27.4918 14.1021 27.0293 13.092 24.804 11.0161C22.4744 8.84224 22.7873 9.19523 25.5933 5.43646C27.3023 3.1473 27.9855 1.74935 27.7717 1.15172C27.5683 0.582049 26.3113 0.732329 26.3113 0.732329L22.1319 0.756794C22.1319 0.756794 21.8224 0.714855 21.5912 0.852903C21.3669 0.989204 21.2226 1.30375 21.2226 1.30375C21.2226 1.30375 20.5603 3.07566 19.6771 4.58196C17.8151 7.76057 17.0693 7.92833 16.765 7.73086C16.0575 7.27129 16.2348 5.88206 16.2348 4.8965C16.2348 1.81575 16.699 0.531373 15.329 0.199357C14.8735 0.0892679 14.5397 0.0158751 13.3766 0.00364293C11.885 -0.0120841 10.6211 0.00888527 9.90654 0.360123C9.43018 0.594281 9.06335 1.11677 9.28762 1.14648C9.56405 1.18317 10.1899 1.31598 10.522 1.77031C10.9514 2.35571 10.9358 3.67329 10.9358 3.67329C10.9358 3.67329 11.1826 7.29924 10.3603 7.75009C9.79527 8.05939 9.02163 7.42856 7.36133 4.54352C6.51119 3.06692 5.86793 1.43306 5.86793 1.43306C5.86793 1.43306 5.7445 1.129 5.5237 0.966488C5.25597 0.769026 4.88045 0.706118 4.88045 0.706118L0.906163 0.730582C0.906163 0.730582 0.309847 0.748057 0.0907918 1.00843C-0.103924 1.24084 0.075145 1.71964 0.075145 1.71964C0.075145 1.71964 3.18712 9.03621 6.70938 12.7251C9.94131 16.1064 13.6096 15.8845 13.6096 15.8845Z" fill="#1E88E5"/>
</svg>
